C:\Users\r0593348\3dpredictsim\Results\batch_windlass\Pog_s1_tmt_bCst_d05_k1500_WL30_ig24_pas_GRF.mot
nRows=30
nColumns=19

name C:\Users\r0593348\3dpredictsim\Results\batch_windlass\Pog_s1_tmt_bCst_d05_k1500_WL30_ig24_pas_GRF.mot
datacolumns 19
datarows 30
range 0.5386537959 0.8510729975
endheader
time 	ground_force_vx	ground_force_vy	ground_force_vz	ground_force_px	ground_force_py	ground_force_pz	1_ground_force_vx	1_ground_force_vy	1_ground_force_vz	1_ground_force_px	1_ground_force_py	1_ground_force_pz	ground_torque_x	ground_torque_y	ground_torque_z	1_ground_torque_x	1_ground_torque_y	1_ground_torque_z
        0.5386537959	       89.9281102797	      462.3965079111	        2.1101581163	        0.3520176541	        0.0000000000	        0.0352046765	      -81.3259792499	       57.6244252182	      -19.6034132161	        0.8121502207	        0.0000000000	       -0.0447562575	        0.0000000000	        0.0000000000	        0.0000000000	        0.0000000000	        0.0000000000	        0.0000000000	
        0.5494268718	       72.4947889671	      375.8779510957	        7.5524444858	        0.3568964960	        0.0000000000	        0.0334126745	     -130.4540779611	      116.0744768408	      -42.2850370521	        0.8239577691	        0.0000000000	       -0.0426449314	        0.0000000000	        0.0000000000	        0.0000000000	        0.0000000000	        0.0000000000	        0.0000000000	
        0.5601999477	       42.1208521662	      279.8859721748	       15.1539727780	        0.3645901729	        0.0000000000	        0.0300561839	     -106.6539053424	      230.5111590818	      -64.0950960888	        0.8339343413	        0.0000000000	       -0.0420577137	        0.0000000000	        0.0000000000	        0.0000000000	        0.0000000000	        0.0000000000	        0.0000000000	
        0.5709730236	       17.1312689212	      190.2647337542	       14.9072016295	        0.3768078711	        0.0000000000	        0.0236829832	      -61.5263591765	      466.5653034355	      -10.2028775110	        0.8454718845	        0.0000000000	       -0.0434176367	        0.0000000000	        0.0000000000	        0.0000000000	        0.0000000000	        0.0000000000	        0.0000000000	
        0.5817460996	        1.8879809595	      149.6207771146	       13.6178834070	        0.3819775170	        0.0000000000	        0.0203675918	      -71.8322556620	      683.3814679009	        9.9125813036	        0.8525944339	        0.0000000000	       -0.0450447879	        0.0000000000	        0.0000000000	        0.0000000000	        0.0000000000	        0.0000000000	        0.0000000000	
        0.5925191755	       -4.4106127579	      115.2981636925	       12.3149238966	        0.3820675631	        0.0000000000	        0.0203401269	      -92.5376538929	      809.7364585926	       16.7696799746	        0.8581489909	        0.0000000000	       -0.0460801517	        0.0000000000	        0.0000000000	        0.0000000000	        0.0000000000	        0.0000000000	        0.0000000000	
        0.6032922514	      -13.4151550964	       74.1186743977	        9.7612436221	        0.3817920745	        0.0000000000	        0.0202679031	     -111.5610870634	      875.8523391506	       17.0599989252	        0.8637769072	        0.0000000000	       -0.0464169803	        0.0000000000	        0.0000000000	        0.0000000000	        0.0000000000	        0.0000000000	        0.0000000000	
        0.6140653273	      -11.5690056659	       26.2353907613	        3.8783254841	        0.3816207242	        0.0000000000	        0.0199912460	     -112.7179517806	      903.3829937001	       17.3383778347	        0.8702473650	        0.0000000000	       -0.0462339137	        0.0000000000	        0.0000000000	        0.0000000000	        0.0000000000	        0.0000000000	        0.0000000000	
        0.6248384032	        0.2254498005	       -0.2224133344	       -0.0015164299	        0.0000000000	        0.0000000000	        0.0000000000	     -106.3731046285	      888.5831651675	       16.4678732077	        0.8759266753	        0.0000000000	       -0.0458290769	        0.0000000000	        0.0000000000	        0.0000000000	        0.0000000000	        0.0000000000	        0.0000000000	
        0.6356114792	        0.0009269459	       -0.0007565852	        0.0000473545	        0.0000000000	        0.0000000000	        0.0000000000	      -91.6260380151	      841.1448872412	       16.5796109258	        0.8798987159	        0.0000000000	       -0.0454779209	        0.0000000000	        0.0000000000	        0.0000000000	        0.0000000000	        0.0000000000	        0.0000000000	
        0.6463845551	        0.0003796710	       -0.0002697877	        0.0000248039	        0.0000000000	        0.0000000000	        0.0000000000	      -76.7309206478	      785.5981452114	       16.8134212872	        0.8831799764	        0.0000000000	       -0.0452679227	        0.0000000000	        0.0000000000	        0.0000000000	        0.0000000000	        0.0000000000	        0.0000000000	
        0.6571576310	        0.0014953718	       -0.0009559907	        0.0001085509	        0.0000000000	        0.0000000000	        0.0000000000	      -64.1926410100	      736.3544920098	       17.0527096216	        0.8862919528	        0.0000000000	       -0.0451661281	        0.0000000000	        0.0000000000	        0.0000000000	        0.0000000000	        0.0000000000	        0.0000000000	
        0.6679307069	        0.0136608451	       -0.0080377890	        0.0010573896	        0.0000000000	        0.0000000000	        0.0000000000	      -53.2584034364	      696.0235274158	       17.7146813485	        0.8894791104	        0.0000000000	       -0.0451353266	        0.0000000000	        0.0000000000	        0.0000000000	        0.0000000000	        0.0000000000	        0.0000000000	
        0.6787037828	       -0.0535011680	        0.0294439880	       -0.0043259855	        0.0000000000	        0.0000000000	        0.0000000000	      -43.6913138320	      663.1172017069	       18.2830428398	        0.8928892885	        0.0000000000	       -0.0451566994	        0.0000000000	        0.0000000000	        0.0000000000	        0.0000000000	        0.0000000000	        0.0000000000	
        0.6894768587	       -0.0410555083	        0.0213570296	       -0.0034326074	        0.0000000000	        0.0000000000	        0.0000000000	      -35.1673212060	      637.0067271867	       18.9121318473	        0.8968670689	        0.0000000000	       -0.0451949720	        0.0000000000	        0.0000000000	        0.0000000000	        0.0000000000	        0.0000000000	        0.0000000000	
        0.7002499347	       -0.0259663003	        0.0128587451	       -0.0022327375	        0.0000000000	        0.0000000000	        0.0000000000	      -28.6921181125	      617.2289926136	       19.6967849064	        0.9015533432	        0.0000000000	       -0.0452060255	        0.0000000000	        0.0000000000	        0.0000000000	        0.0000000000	        0.0000000000	        0.0000000000	
        0.7110230106	       -0.0194243495	        0.0092127835	       -0.0017102088	        0.0000000000	        0.0000000000	        0.0000000000	      -24.2350952489	      602.8793184047	       20.3231607402	        0.9066960623	        0.0000000000	       -0.0451690647	        0.0000000000	        0.0000000000	        0.0000000000	        0.0000000000	        0.0000000000	        0.0000000000	
        0.7217960865	       -0.0185641957	        0.0084752492	       -0.0016623437	        0.0000000000	        0.0000000000	        0.0000000000	      -20.7015170568	      593.0444649603	       20.6222384614	        0.9121258031	        0.0000000000	       -0.0450827606	        0.0000000000	        0.0000000000	        0.0000000000	        0.0000000000	        0.0000000000	        0.0000000000	
        0.7325691624	       -0.0226826754	        0.0100081592	       -0.0020470689	        0.0000000000	        0.0000000000	        0.0000000000	      -18.0523789740	      586.7427780345	       20.6448195305	        0.9177919521	        0.0000000000	       -0.0449443683	        0.0000000000	        0.0000000000	        0.0000000000	        0.0000000000	        0.0000000000	        0.0000000000	
        0.7433422383	       -0.0339769904	        0.0145414919	       -0.0030648854	        0.0000000000	        0.0000000000	        0.0000000000	      -16.8357184404	      583.2755398700	       20.3108524704	        0.9234879764	        0.0000000000	       -0.0447642684	        0.0000000000	        0.0000000000	        0.0000000000	        0.0000000000	        0.0000000000	        0.0000000000	
        0.7541153142	       -0.0585593737	        0.0243985396	       -0.0052496863	        0.0000000000	        0.0000000000	        0.0000000000	      -15.7128095240	      581.9337103347	       19.8890875083	        0.9291411447	        0.0000000000	       -0.0445533785	        0.0000000000	        0.0000000000	        0.0000000000	        0.0000000000	        0.0000000000	        0.0000000000	
        0.7648883902	       -0.1081485015	        0.0440251108	       -0.0095945599	        0.0000000000	        0.0000000000	        0.0000000000	      -14.3692611494	      581.3001570157	       19.4912429022	        0.9347557508	        0.0000000000	       -0.0443141250	        0.0000000000	        0.0000000000	        0.0000000000	        0.0000000000	        0.0000000000	        0.0000000000	
        0.7756614661	       -0.2002714435	        0.0799340845	       -0.0175366545	        0.0000000000	        0.0000000000	        0.0000000000	      -12.8201734608	      580.0733974426	       19.3518252362	        0.9402149167	        0.0000000000	       -0.0440587321	        0.0000000000	        0.0000000000	        0.0000000000	        0.0000000000	        0.0000000000	        0.0000000000	
        0.7864345420	       -0.3526464271	        0.1384758910	       -0.0304477332	        0.0000000000	        0.0000000000	        0.0000000000	      -10.8623543275	      577.6776800460	       19.2905098887	        0.9455286908	        0.0000000000	       -0.0437956092	        0.0000000000	        0.0000000000	        0.0000000000	        0.0000000000	        0.0000000000	        0.0000000000	
        0.7972076179	       -0.5670428925	        0.2198128682	       -0.0482156190	        0.0000000000	        0.0000000000	        0.0000000000	       -8.7428473316	      574.1744255184	       19.2361754056	        0.9507507746	        0.0000000000	       -0.0435214943	        0.0000000000	        0.0000000000	        0.0000000000	        0.0000000000	        0.0000000000	        0.0000000000	
        0.8079806938	       -0.8177450614	        0.3139179858	       -0.0682427149	        0.0000000000	        0.0000000000	        0.0000000000	       -6.4344595057	      569.2366709797	       19.0239334570	        0.9558594972	        0.0000000000	       -0.0432396981	        0.0000000000	        0.0000000000	        0.0000000000	        0.0000000000	        0.0000000000	        0.0000000000	
        0.8187537698	       -1.0594204556	        0.4037699799	       -0.0861913737	        0.0000000000	        0.0000000000	        0.0000000000	       -3.7428930312	      563.4132332308	       18.3959515015	        0.9609514188	        0.0000000000	       -0.0429439365	        0.0000000000	        0.0000000000	        0.0000000000	        0.0000000000	        0.0000000000	        0.0000000000	
        0.8295268457	       -1.2526956020	        0.4748554694	       -0.0981382890	        0.0000000000	        0.0000000000	        0.0000000000	       -0.5400611003	      557.0073655144	       17.2190683327	        0.9660550729	        0.0000000000	       -0.0426295308	        0.0000000000	        0.0000000000	        0.0000000000	        0.0000000000	        0.0000000000	        0.0000000000	
        0.8402999216	       -1.3851027565	        0.5227520078	       -0.1021726220	        0.0000000000	        0.0000000000	        0.0000000000	        3.4500323150	      550.2223641998	       15.4679770432	        0.9711770386	        0.0000000000	       -0.0422924988	        0.0000000000	        0.0000000000	        0.0000000000	        0.0000000000	        0.0000000000	        0.0000000000	
        0.8510729975	       -1.4667981216	        0.5515114856	       -0.0987239565	        0.0000000000	        0.0000000000	        0.0000000000	        7.3735139474	      544.3008079683	       13.2505584269	        0.9762826479	        0.0000000000	       -0.0419297749	        0.0000000000	        0.0000000000	        0.0000000000	        0.0000000000	        0.0000000000	        0.0000000000	
